<svg xmlns="http://www.w3.org/2000/svg" width="30" height="30" viewBox="0 0 30 30"><defs><style>.cls-1{fill:#fff;}</style></defs><g id="arrow-right"><path class="cls-1" d="M26,30H4a4.00427,4.00427,0,0,1-4-4V18a4.00458,4.00458,0,0,1,4-4H20.58594L16.293,9.707A.99989.99989,0,0,1,17.707,8.293l6,6a.99743.99743,0,0,1,.293.7041h0v.00586h0a.99743.99743,0,0,1-.293.7041l-6,6A.99989.99989,0,0,1,16.293,20.293L20.58594,16H4a2.00229,2.00229,0,0,0-2,2v8a2.00229,2.00229,0,0,0,2,2H26a2.00229,2.00229,0,0,0,2-2V4a2.002,2.002,0,0,0-2-2H4A2.002,2.002,0,0,0,2,4v8a1,1,0,0,1-2,0V4A4.00458,4.00458,0,0,1,4,0H26a4.00458,4.00458,0,0,1,4,4V26A4.00427,4.00427,0,0,1,26,30Z"/></g></svg>