<?xml version="1.0" encoding="utf-8"?>
<!-- Generator: Adobe Illustrator 25.4.1, SVG Export Plug-In . SVG Version: 6.00 Build 0)  -->
<svg version="1.1" id="Layer_1" xmlns="http://www.w3.org/2000/svg" xmlns:xlink="http://www.w3.org/1999/xlink" x="0px" y="0px"
	 viewBox="0 0 30 30" style="enable-background:new 0 0 30 30;" xml:space="preserve">
<style type="text/css">
	.st0{fill:#FFFFFF;}
</style>
<g id="book-tag">
	<path class="st0" d="M26,30H9c-1.7,0-3-1.3-3-3V8c0-1.7,1.3-3,3-3h12c0.6,0,1,0.4,1,1c0,0,0,0,0,0v3h1c0.6,0,1,0.4,1,1c0,0,0,0,0,0
		v15c0,0.6-0.4,1-1,1s-1-0.4-1-1V11h-2v9.2c0,0.7-0.6,1.3-1.3,1.3c-0.4,0-0.7-0.1-1-0.4c-0.4-0.4-1-0.4-1.4,0c0,0,0,0,0,0
		c-0.5,0.5-1.4,0.5-1.9,0c-0.3-0.3-0.4-0.6-0.4-1V11H9c-0.3,0-0.7-0.1-1-0.2V27c0,0.6,0.4,1,1,1h17c1.1,0,2-0.9,2-2V4
		c0-1.1-0.9-2-2-2H4C2.9,2,2,2.9,2,4v22c0,1.1,0.9,2,2,2c0.6,0,1,0.4,1,1s-0.4,1-1,1c-2.2,0-4-1.8-4-4V4c0-2.2,1.8-4,4-4h22
		c2.2,0,4,1.8,4,4v22C30,28.2,28.2,30,26,30z M17,18.8c0.3,0,0.7,0.1,1,0.2v-8h-2v8C16.3,18.9,16.7,18.8,17,18.8z M9,9h11V7H9
		C8.4,7,8,7.4,8,8S8.4,9,9,9z"/>
</g>
</svg>
