<?xml version="1.0" encoding="utf-8"?>
<!-- Generator: Adobe Illustrator 25.4.1, SVG Export Plug-In . SVG Version: 6.00 Build 0)  -->
<svg version="1.1" id="Layer_1" xmlns="http://www.w3.org/2000/svg" xmlns:xlink="http://www.w3.org/1999/xlink" x="0px" y="0px"
	 viewBox="0 0 30 30" style="enable-background:new 0 0 30 30;" xml:space="preserve">
<style type="text/css">
	.st0{fill:#FFFFFF;}
</style>
<g id="click-2">
	<path class="st0" d="M26,30H10c-0.6,0-1-0.4-1-1s0.4-1,1-1h16c1.1,0,2-0.9,2-2V4c0-1.1-0.9-2-2-2H4C2.9,2,2,2.9,2,4v22
		c0,1.1,0.9,2,2,2h2c0.6,0,1,0.4,1,1s-0.4,1-1,1H4c-2.2,0-4-1.8-4-4V4c0-2.2,1.8-4,4-4h22c2.2,0,4,1.8,4,4v22C30,28.2,28.2,30,26,30
		z M19.6,25C19.5,25,19.5,25,19.6,25c-0.4,0-0.8-0.3-0.9-0.6l-3.6-8c-0.2-0.5,0-1.1,0.5-1.3c0.3-0.1,0.6-0.1,0.8,0l8,3.6
		c0.5,0.2,0.7,0.8,0.5,1.3c-0.1,0.2-0.2,0.3-0.4,0.4l-1.7,1.1l1.8,1.8c0.4,0.4,0.4,1,0,1.4c-0.4,0.4-1,0.4-1.4,0l-1.8-1.8l-1.1,1.7
		C20.2,24.8,19.9,25,19.6,25z M18,18l1.8,4l0.8-1.1c0.1-0.1,0.2-0.2,0.3-0.3l0,0h0l0,0l1.2-0.8L18,18z M12,18H7c-0.6,0-1-0.4-1-1
		s0.4-1,1-1h5c0.6,0,1,0.4,1,1S12.6,18,12,18z M23,13H7c-0.6,0-1-0.4-1-1s0.4-1,1-1h16c0.6,0,1,0.4,1,1S23.6,13,23,13z M23,8H7
		C6.4,8,6,7.6,6,7s0.4-1,1-1h16c0.6,0,1,0.4,1,1S23.6,8,23,8z"/>
</g>
</svg>
